<svg aria-hidden="true" style="position: absolute; width: 0; height: 0; overflow: hidden;" version="1.1" xmlns="http://www.w3.org/2000/svg" xmlns:xlink="http://www.w3.org/1999/xlink">
<defs>
<symbol id="icon-burger" viewBox="0 0 48 32">
<path fill="#fff" style="fill: var(--color1, #fff)" d="M46.925 14.472h-43.55c-0.587 0-1.179-0.005-1.766 0h-0.077c-0.801 0-1.567 0.703-1.531 1.528 0.036 0.83 0.674 1.528 1.531 1.528h43.55c0.587 0 1.179 0.005 1.766 0h0.077c0.801 0 1.567-0.703 1.531-1.528-0.041-0.83-0.674-1.528-1.531-1.528zM46.925 0.002h-43.55c-0.587 0-1.179-0.005-1.766 0h-0.077c-0.801 0-1.567 0.703-1.531 1.528 0.036 0.83 0.674 1.528 1.531 1.528h43.55c0.587 0 1.179 0.005 1.766 0h0.077c0.801 0 1.567-0.703 1.531-1.528-0.041-0.83-0.674-1.528-1.531-1.528zM46.925 28.941h-43.55c-0.587 0-1.179-0.005-1.766 0h-0.077c-0.801 0-1.567 0.703-1.531 1.529 0.036 0.83 0.674 1.528 1.531 1.528h43.55c0.587 0 1.179 0.005 1.766 0h0.077c0.801 0 1.567-0.703 1.531-1.528-0.041-0.83-0.674-1.529-1.531-1.529z"></path>
</symbol>
<symbol id="icon-close" viewBox="0 0 32 32">
<path stroke="white" stroke-linejoin="round" stroke-linecap="round" stroke-miterlimit="4" stroke-width="1.7778" d="M24 8l-16 16"></path>
<path stroke="white" stroke-linejoin="round" stroke-linecap="round" stroke-miterlimit="4" stroke-width="1.7778" d="M8 8l16 16"></path>
</symbol>
<symbol id="icon-chek-test" viewBox="0 0 28 32">
<path fill="#fff" style="fill: var(--color1, #fff)" d="M5.197 22.047h-5.202l6.643 6.689v-5.223c0-0.385-0.151-0.754-0.421-1.028s-0.636-0.432-1.021-0.439z"></path>
<path fill="#fff" style="fill: var(--color1, #fff)" d="M20.104 0.164h-18.668c-0.385 0.005-0.752 0.162-1.022 0.437s-0.42 0.645-0.419 1.030v19.046h5.202c0.753 0.001 1.475 0.301 2.008 0.834s0.832 1.254 0.834 2.008v5.218h6.367c-0.367-0.902-0.554-1.867-0.552-2.841 0.009-2.027 0.821-3.967 2.258-5.397s3.381-2.233 5.408-2.233h0.072v-16.634c0-0.194-0.039-0.387-0.114-0.566s-0.185-0.342-0.323-0.478-0.302-0.244-0.483-0.317c-0.18-0.073-0.373-0.108-0.568-0.106zM18.331 16.287h-15.121c-0.095 0.008-0.191-0.003-0.282-0.034s-0.174-0.080-0.244-0.145c-0.070-0.065-0.127-0.143-0.165-0.231s-0.058-0.182-0.058-0.278c0-0.096 0.020-0.19 0.058-0.278s0.095-0.166 0.165-0.231 0.154-0.114 0.244-0.145c0.091-0.031 0.186-0.042 0.282-0.034h15.127c0.095-0.008 0.191 0.003 0.282 0.034s0.174 0.080 0.244 0.145c0.070 0.065 0.127 0.143 0.165 0.231s0.058 0.182 0.058 0.278-0.020 0.19-0.058 0.278c-0.038 0.088-0.095 0.166-0.165 0.231s-0.154 0.114-0.244 0.145c-0.090 0.031-0.186 0.042-0.282 0.034h-0.005zM18.331 12.163h-15.121c-0.095 0.008-0.191-0.003-0.282-0.034s-0.174-0.080-0.244-0.145c-0.070-0.065-0.127-0.143-0.165-0.231s-0.058-0.182-0.058-0.278c0-0.096 0.020-0.19 0.058-0.278s0.095-0.166 0.165-0.231c0.070-0.065 0.154-0.114 0.244-0.145s0.186-0.042 0.282-0.034h15.127c0.095-0.008 0.191 0.003 0.282 0.034s0.174 0.080 0.244 0.145c0.070 0.065 0.127 0.143 0.165 0.231s0.058 0.182 0.058 0.278c0 0.096-0.020 0.19-0.058 0.278s-0.095 0.166-0.165 0.231c-0.070 0.065-0.154 0.114-0.244 0.145s-0.186 0.042-0.282 0.034h-0.005zM18.331 8.034h-15.121c-0.095 0.008-0.191-0.003-0.282-0.034s-0.174-0.080-0.244-0.145c-0.070-0.065-0.127-0.143-0.165-0.231s-0.058-0.182-0.058-0.278c0-0.096 0.020-0.19 0.058-0.278s0.095-0.166 0.165-0.231 0.154-0.114 0.244-0.145c0.091-0.031 0.186-0.042 0.282-0.034h15.127c0.095-0.008 0.191 0.003 0.282 0.034s0.174 0.080 0.244 0.145c0.070 0.065 0.127 0.143 0.165 0.231s0.058 0.182 0.058 0.278c0 0.096-0.020 0.19-0.058 0.278s-0.095 0.166-0.165 0.231c-0.070 0.065-0.154 0.114-0.244 0.145s-0.186 0.042-0.282 0.034h-0.005zM18.331 3.91h-15.121c-0.095 0.008-0.191-0.003-0.282-0.034s-0.174-0.080-0.244-0.145c-0.070-0.065-0.127-0.143-0.165-0.231s-0.058-0.182-0.058-0.278c0-0.096 0.020-0.19 0.058-0.278s0.095-0.166 0.165-0.231c0.070-0.065 0.154-0.114 0.244-0.145s0.186-0.042 0.282-0.034h15.127c0.095-0.008 0.191 0.003 0.282 0.034s0.174 0.080 0.244 0.145c0.070 0.065 0.127 0.143 0.165 0.231s0.058 0.182 0.058 0.278c0 0.096-0.020 0.19-0.058 0.278s-0.095 0.166-0.165 0.231c-0.070 0.065-0.154 0.114-0.244 0.145s-0.186 0.042-0.282 0.034h-0.005z"></path>
<path fill="#fff" style="fill: var(--color1, #fff)" d="M21.576 19.798h-0.072c-1.62 0-3.175 0.641-4.324 1.784s-1.799 2.693-1.809 4.313c-0.002 0.991 0.242 1.968 0.71 2.841 0.501 0.954 1.246 1.758 2.158 2.331s1.961 0.894 3.038 0.93c1.077 0.036 2.144-0.213 3.094-0.723s1.747-1.262 2.311-2.18 0.875-1.969 0.902-3.046c0.026-1.077-0.233-2.142-0.752-3.087s-1.279-1.735-2.202-2.29c-0.923-0.556-1.977-0.857-3.055-0.873zM19.389 28.997l-2.019-1.988c-0.154-0.155-0.241-0.364-0.241-0.583s0.087-0.428 0.241-0.583c0.155-0.154 0.364-0.241 0.583-0.241s0.428 0.087 0.583 0.241l1.41 1.41 4.482-4.472c0.155-0.155 0.366-0.242 0.585-0.242s0.43 0.087 0.585 0.242c0.154 0.155 0.24 0.364 0.24 0.583s-0.086 0.428-0.24 0.583l-5.059 5.059c-0.155 0.15-0.363 0.233-0.579 0.232s-0.422-0.086-0.576-0.237l0.005-0.005z"></path>
</symbol>
<symbol id="icon-test" viewBox="0 0 26 32">
<path fill="#fff" style="fill: var(--color1, #fff)" d="M17.6 9.6h7.040l-8.64-8.64v7.040c0 0.96 0.64 1.6 1.6 1.6zM17.6 12.8c-2.72 0-4.8-2.080-4.8-4.8v-8h-8c-2.72 0-4.8 2.080-4.8 4.8v22.4c0 2.72 2.080 4.8 4.8 4.8h16c2.72 0 4.8-2.080 4.8-4.8v-14.4h-8zM8 9.6h1.6c0.96 0 1.6 0.64 1.6 1.6s-0.64 1.6-1.6 1.6h-1.6c-0.96 0-1.6-0.64-1.6-1.6s0.64-1.6 1.6-1.6zM17.6 25.6h-9.6c-0.96 0-1.6-0.64-1.6-1.6s0.64-1.6 1.6-1.6h9.6c0.96 0 1.6 0.64 1.6 1.6s-0.64 1.6-1.6 1.6zM17.6 19.2h-9.6c-0.96 0-1.6-0.64-1.6-1.6s0.64-1.6 1.6-1.6h9.6c0.96 0 1.6 0.64 1.6 1.6s-0.64 1.6-1.6 1.6z"></path>
</symbol>
<symbol id="icon-koshik" viewBox="0 0 35 32">
<path fill="#fff" style="fill: var(--color1, #fff)" d="M0 1.778c0-0.982 0.779-1.778 1.739-1.778h3.478c0.81 0 1.513 0.571 1.695 1.378l4.906 21.733h14.65l4.348-17.778h-13.425c-0.96 0-1.739-0.796-1.739-1.778s0.779-1.778 1.739-1.778h15.652c0.535 0 1.041 0.252 1.371 0.684s0.446 0.994 0.316 1.525l-5.217 21.333c-0.193 0.791-0.889 1.347-1.687 1.347h-17.391c-0.81 0-1.512-0.571-1.695-1.378l-4.906-21.733h-2.095c-0.961 0-1.739-0.796-1.739-1.778zM13.913 3.556c0 0.982-0.779 1.778-1.739 1.778s-1.739-0.796-1.739-1.778 0.779-1.778 1.739-1.778c0.961 0 1.739 0.796 1.739 1.778zM20.87 10.667c0-0.982-0.779-1.778-1.739-1.778s-1.739 0.796-1.739 1.778v2.819l-0.509-0.521c-0.679-0.694-1.78-0.694-2.459 0s-0.679 1.82 0 2.514l3.478 3.556c0.679 0.694 1.78 0.694 2.459 0l3.478-3.556c0.679-0.694 0.679-1.82 0-2.514s-1.78-0.694-2.459 0l-0.509 0.521v-2.819zM12.174 32c0.961 0 1.739-0.796 1.739-1.778s-0.779-1.778-1.739-1.778c-0.96 0-1.739 0.796-1.739 1.778s0.779 1.778 1.739 1.778zM27.826 30.222c0 0.982-0.779 1.778-1.739 1.778s-1.739-0.796-1.739-1.778c0-0.982 0.779-1.778 1.739-1.778s1.739 0.796 1.739 1.778z"></path>
</symbol>
<symbol id="icon-money" viewBox="0 0 31 32">
<path fill="#fff" style="fill: var(--color1, #fff)" d="M16.010 7.422c-4.812 0-8.7 3.889-8.7 8.7s3.889 8.7 8.7 8.7c4.812 0 8.7-3.889 8.7-8.7s-3.889-8.7-8.7-8.7zM18.251 19.22c-0.461 0.395-1.055 0.593-1.78 0.659v0.791h-0.725v-0.791c-0.989-0.132-1.911-0.527-2.702-1.186l0.791-0.989c0.593 0.527 1.252 0.857 1.911 0.989v-2.109c-0.857-0.198-1.45-0.461-1.846-0.791-0.33-0.33-0.527-0.857-0.527-1.45 0-0.659 0.198-1.12 0.659-1.582 0.461-0.395 0.989-0.593 1.714-0.659v-0.527h0.725v0.593c0.791 0.066 1.582 0.33 2.307 0.857l-0.725 0.989c-0.461-0.33-0.989-0.527-1.582-0.659v2.043c0.857 0.198 1.45 0.461 1.846 0.791s0.593 0.857 0.593 1.45c0.066 0.659-0.198 1.186-0.659 1.582z"></path>
<path fill="#fff" style="fill: var(--color1, #fff)" d="M14.691 14.211c0 0.264 0.066 0.461 0.198 0.593s0.395 0.264 0.857 0.395v-1.911c-0.33 0-0.593 0.132-0.791 0.264-0.132 0.198-0.264 0.395-0.264 0.659z"></path>
<path fill="#fff" style="fill: var(--color1, #fff)" d="M16.471 16.715v1.977c0.33-0.066 0.659-0.132 0.857-0.33s0.33-0.395 0.33-0.659-0.066-0.461-0.264-0.593c-0.198-0.132-0.461-0.264-0.923-0.395z"></path>
<path fill="#fff" style="fill: var(--color1, #fff)" d="M3.091 15.331c0.198-3.23 1.582-6.262 3.889-8.503 5.009-4.877 12.985-4.877 17.994-0.066l-1.318-0.198c-0.725-0.066-1.318 0.395-1.45 1.055-0.066 0.659 0.395 1.318 1.055 1.45l4.482 0.593c0.066 0 0.132 0 0.198 0 0.264 0 0.527-0.066 0.791-0.264s0.461-0.527 0.461-0.857l0.593-4.482c0.066-0.725-0.395-1.318-1.055-1.45-0.725-0.066-1.318 0.395-1.45 1.055l-0.198 1.516c-2.9-2.966-6.723-4.614-10.875-4.68-4.087 0.066-8.041 1.648-11.007 4.548-2.768 2.702-4.416 6.328-4.68 10.15-0.066 0.725 0.461 1.318 1.186 1.318h0.066c0.725 0 1.252-0.527 1.318-1.186z"></path>
<path fill="#fff" style="fill: var(--color1, #fff)" d="M30.313 15.726c-0.659-0.066-1.318 0.461-1.318 1.186-0.198 3.23-1.582 6.262-3.889 8.503-5.075 4.877-13.051 4.877-18.060 0l1.45 0.132c0.725 0.066 1.318-0.461 1.384-1.12 0.066-0.725-0.461-1.318-1.12-1.384l-4.614-0.461c-0.33-0.066-0.659 0.066-0.923 0.264s-0.395 0.527-0.461 0.857l-0.461 4.482c-0.066 0.725 0.461 1.318 1.12 1.384 0.066 0 0.066 0 0.132 0 0.659 0 1.186-0.461 1.252-1.12l0.132-1.45c3.032 3.098 7.053 4.614 11.007 4.614 3.889 0 7.778-1.45 10.81-4.35 2.768-2.702 4.416-6.328 4.68-10.15 0.066-0.725-0.461-1.318-1.12-1.384z"></path>
</symbol>
<symbol id="icon-learn" viewBox="0 0 41 32">
<path fill="#e1400f" style="fill: var(--color1, #e1400f)" d="M40.114 14.133l-17.143-13.333c-1.371-1.067-3.429-1.067-4.8 0s-1.371 2.667 0 3.733l11.314 8.8h-26.057c-2.057 0-3.429 1.067-3.429 2.667s1.371 2.667 3.429 2.667h26.057l-11.314 8.8c-1.371 1.067-1.371 2.666 0 3.733s3.429 1.067 4.8 0l17.143-13.333c1.371-0.8 1.371-2.667 0-3.733z"></path>
</symbol>
</defs>
</svg>

